<svg xmlns="http://www.w3.org/2000/svg" xmlns:xlink="http://www.w3.org/1999/xlink" fill="none" version="1.1" width="16" height="16" viewBox="0 0 16 16"><defs><clipPath id="master_svg0_438_183186"><rect x="0" y="0" width="16" height="16" rx="0"/></clipPath></defs><g clip-path="url(#master_svg0_438_183186)"><g><rect x="0" y="0" width="16" height="16" rx="0" fill="#FFFFFF" fill-opacity="0.009999999776482582" style="mix-blend-mode:passthrough"/></g><g><path d="M3.2270288000000003,3.2270285999999997Q1.25000036,5.204057499999999,1.25000036,8Q1.25,10.7959423,3.2270285999999997,12.772971Q5.204057499999999,14.75,8,14.75Q10.7959423,14.75,12.772971,12.772971Q14.75,10.7959423,14.75,8Q14.75,5.2040577,12.772971,3.2270288000000003Q10.7959423,1.25000036,8,1.25000036Q5.204057499999999,1.25,3.2270288000000003,3.2270285999999997ZM4.2876887,11.7123108Q2.75,10.1746216,2.75,8Q2.75000036,5.825377899999999,4.2876892,4.2876887Q5.8253775,2.75,8,2.75000036Q10.1746216,2.75000036,11.7123108,4.2876892Q13.25,5.825377899999999,13.25,8Q13.25,10.1746216,11.7123108,11.7123108Q10.1746216,13.25,8,13.25Q5.825377899999999,13.25,4.2876887,11.7123108Z" fill-rule="evenodd" fill="#3355FF" fill-opacity="1"/></g><g><path d="M7.25014997,5.33349609375Q7.25014997,5.25964231075,7.2645582,5.18720761375Q7.27896631,5.11477291375,7.30722892,5.04654091375Q7.33549154,4.97830891375,7.37652254,4.91690176375Q7.4175534800000005,4.85549458375,7.46977597,4.80327206375Q7.52199849,4.7510495737500005,7.58340567,4.71001863375Q7.64481282,4.66898763375,7.71304482,4.64072501375Q7.78127682,4.61246240375,7.85371152,4.59805429375Q7.926146217,4.58364606375,8,4.58364606375Q8.073853783,4.58364606375,8.14628848,4.59805429375Q8.21872318,4.61246240375,8.28695518,4.64072501375Q8.35518718,4.66898763375,8.41659433,4.71001863375Q8.47800151,4.7510495737500005,8.53022403,4.80327206375Q8.58244652,4.85549458375,8.62347746,4.91690176375Q8.66450846,4.97830891375,8.69277108,5.04654091375Q8.72103369,5.11477291375,8.7354418,5.18720761375Q8.74985003,5.25964231075,8.74985003,5.33349609375L8.75,5.33349609375L8.75,10.66682959375L8.74985003,10.66682959375Q8.74985003,10.74068359375,8.7354418,10.81311799375Q8.72103369,10.88555239375,8.69277108,10.953783993750001Q8.66450846,11.02201559375,8.62347746,11.08342269375Q8.58244652,11.144829793749999,8.53022403,11.197052993749999Q8.47800151,11.24927519375,8.41659433,11.29030609375Q8.35518718,11.33133699375,8.28695518,11.35960009375Q8.21872318,11.38786219375,8.14628848,11.40227029375Q8.073853783,11.41667889375,8,11.41667939375Q7.926146217,11.41667889375,7.85371152,11.402270793749999Q7.78127682,11.38786219375,7.71304482,11.35959959375Q7.64481282,11.33133699375,7.58340567,11.29030609375Q7.52199849,11.24927519375,7.46977597,11.197052993749999Q7.4175534800000005,11.144829793749999,7.37652254,11.08342269375Q7.33549154,11.02201559375,7.30722892,10.953783993750001Q7.27896631,10.88555239375,7.2645582,10.81311799375Q7.25014997,10.74068359375,7.25014997,10.66682959375L7.25,10.66682959375L7.25,5.33349609375L7.25014997,5.33349609375Z" fill-rule="evenodd" fill="#3355FF" fill-opacity="1"/></g><g><path d="M5.33349609375,8.75L10.66682959375,8.75L10.66682959375,8.74985003Q10.74068359375,8.74985003,10.81311799375,8.7354418Q10.88555239375,8.72103369,10.953783993750001,8.69277108Q11.02201559375,8.66450846,11.08342269375,8.62347746Q11.144829793749999,8.58244652,11.197052993749999,8.53022403Q11.24927519375,8.47800151,11.29030609375,8.41659433Q11.33133699375,8.35518718,11.35960009375,8.28695518Q11.38786219375,8.21872318,11.40227029375,8.14628848Q11.41667889375,8.073853783,11.41667939375,8Q11.41667889375,7.926146217,11.402270793749999,7.85371152Q11.38786219375,7.78127682,11.35959959375,7.71304482Q11.33133699375,7.64481282,11.29030609375,7.58340567Q11.24927519375,7.52199849,11.197052993749999,7.46977597Q11.144829793749999,7.4175534800000005,11.08342269375,7.37652254Q11.02201559375,7.33549154,10.953783993750001,7.30722892Q10.88555239375,7.27896631,10.81311799375,7.2645582Q10.74068359375,7.25014997,10.66682959375,7.25014997L10.66682959375,7.25L5.33349609375,7.25L5.33349609375,7.25014997Q5.25964231075,7.25014997,5.18720761375,7.2645582Q5.11477291375,7.27896631,5.04654091375,7.30722892Q4.97830891375,7.33549154,4.91690176375,7.37652254Q4.85549458375,7.4175534800000005,4.80327206375,7.46977597Q4.7510495737500005,7.52199849,4.71001863375,7.58340567Q4.66898763375,7.64481282,4.64072501375,7.71304482Q4.61246240375,7.78127682,4.59805429375,7.85371152Q4.58364606375,7.926146217,4.58364606375,8Q4.58364606375,8.073853783,4.59805429375,8.14628848Q4.61246240375,8.21872318,4.64072501375,8.28695518Q4.66898763375,8.35518718,4.71001863375,8.41659433Q4.7510495737500005,8.47800151,4.80327206375,8.53022403Q4.85549458375,8.58244652,4.91690176375,8.62347746Q4.97830891375,8.66450846,5.04654091375,8.69277108Q5.11477291375,8.72103369,5.18720761375,8.7354418Q5.25964231075,8.74985003,5.33349609375,8.74985003L5.33349609375,8.75Z" fill-rule="evenodd" fill="#3355FF" fill-opacity="1"/></g></g></svg>