<svg xmlns="http://www.w3.org/2000/svg" xmlns:xlink="http://www.w3.org/1999/xlink" fill="none" version="1.1" width="14" height="14" viewBox="0 0 14 14"><defs><clipPath id="master_svg0_573_109629"><rect x="0" y="0" width="14" height="14" rx="0"/></clipPath></defs><g clip-path="url(#master_svg0_573_109629)"><g><rect x="0" y="0" width="14" height="14" rx="0" fill="#FFFFFF" fill-opacity="0.009999999776482582" style="mix-blend-mode:passthrough"/></g><g><path d="M12.25,7Q12.25,7.1288805,12.243676,7.2576056Q12.237352,7.3863306,12.22472,7.5145903Q12.212088,7.6428499,12.193176,7.7703352Q12.174266,7.89782,12.149122,8.0242238Q12.12398,8.1506276,12.092664,8.2756453Q12.061349,8.4006634,12.023937,8.5239944Q11.986525,8.6473255,11.943106,8.7686715Q11.899687,8.890018000000001,11.850367,9.0090876Q11.801046,9.1281576,11.7459431,9.244664199999999Q11.6908398,9.361169799999999,11.6300869,9.4748325Q11.5693321,9.5884943,11.5030746,9.699038Q11.4368172,9.8095818,11.3652143,9.9167423Q11.2936115,10.0239029,11.2168388,10.1274204Q11.1400642,10.230938,11.0583038,10.3305645Q10.9765434,10.4301901,10.8899918,10.5256844Q10.803442,10.6211777,10.7123098,10.7123098Q10.6211777,10.803442,10.5256844,10.8899918Q10.4301901,10.9765434,10.3305645,11.0583038Q10.230938,11.1400642,10.1274204,11.2168379Q10.0239029,11.2936115,9.9167423,11.3652143Q9.8095818,11.4368172,9.6990385,11.5030746Q9.5884943,11.5693321,9.4748325,11.6300869Q9.361169799999999,11.6908398,9.2446632,11.7459431Q9.1281567,11.801046,9.0090871,11.850367Q8.890017499999999,11.899687,8.768671000000001,11.943106Q8.647325,11.986525,8.5239944,12.023937Q8.4006634,12.061349,8.2756453,12.092664Q8.1506276,12.12398,8.0242238,12.149122Q7.89782,12.174266,7.7703342,12.193177Q7.6428494,12.212088,7.5145898,12.22472Q7.3863301,12.237352,7.2576051,12.243676Q7.1288805,12.25,7,12.25Q6.87112,12.25,6.7423944,12.243676Q6.6136694,12.237352,6.4854097,12.22472Q6.3571501,12.212088,6.2296643,12.193176Q6.1021791,12.174266,5.9757752,12.149122Q5.8493714,12.12398,5.724353799999999,12.092664Q5.5993357,12.061349,5.4760051,12.023937Q5.3526742,11.986525,5.2313278,11.943106Q5.1099815,11.899687,4.9909117,11.850367Q4.8718419,11.801046,4.7553356,11.7459431Q4.6388292,11.6908398,4.525167,11.6300869Q4.4115047,11.5693321,4.3009605,11.5030746Q4.1904161,11.4368172,4.083256,11.3652143Q3.9760959,11.2936115,3.8725784,11.2168388Q3.7690609,11.1400642,3.6694351000000003,11.0583038Q3.5698093,10.9765434,3.4743154,10.8899918Q3.3788214,10.803442,3.2876893000000003,10.7123098Q3.1965572,10.6211777,3.1100066,10.5256844Q3.0234559,10.4301901,2.9416951,10.3305645Q2.8599343,10.230938,2.7831604,10.1274204Q2.7063865700000003,10.0239029,2.63478446,9.9167423Q2.56318241,9.8095818,2.4969247599999997,9.6990385Q2.43066704,9.5884943,2.36991334,9.4748325Q2.30915958,9.361169799999999,2.25405616,9.2446632Q2.1989527300000002,9.1281567,2.14963239,9.0090871Q2.10031205,8.890017499999999,2.05689365,8.768671000000001Q2.01347518,8.647325,1.97606322,8.5239944Q1.93865125,8.4006634,1.90733591,8.2756453Q1.87602055,8.1506276,1.85087726,8.0242238Q1.825733975,7.89782,1.806823317,7.7703342Q1.787912659,7.6428494,1.775280183,7.5145898Q1.762647709,7.3863301,1.7563238544,7.2576051Q1.75,7.1288805,1.75,7Q1.75,6.87112,1.7563238544,6.7423944Q1.762647709,6.6136694,1.775280183,6.4854097Q1.787912659,6.3571501,1.806823317,6.2296643Q1.825733975,6.1021791,1.85087726,5.9757752Q1.87602055,5.8493714,1.90733591,5.724353799999999Q1.93865125,5.5993357,1.97606322,5.4760051Q2.01347518,5.3526742,2.05689362,5.2313278Q2.10031205,5.1099815,2.14963239,4.9909117Q2.1989527300000002,4.8718419,2.25405616,4.7553356Q2.30915958,4.6388292,2.36991334,4.525167Q2.43066704,4.4115047,2.4969247,4.3009605Q2.56318241,4.1904161,2.63478446,4.083256Q2.7063865700000003,3.9760959,2.7831604,3.8725784Q2.8599343,3.7690609,2.9416951,3.6694351000000003Q3.0234559,3.5698093,3.1100066,3.4743154Q3.1965572,3.3788214,3.2876893000000003,3.2876893000000003Q3.3788214,3.1965572,3.4743152999999998,3.1100066Q3.5698094,3.0234559,3.6694353,2.9416951Q3.7690609,2.8599343,3.8725784,2.7831604Q3.9760959,2.7063865700000003,4.083256,2.63478446Q4.1904161,2.56318241,4.3009605,2.4969247599999997Q4.4115047,2.43066704,4.525167,2.36991334Q4.6388292,2.30915958,4.7553356,2.25405616Q4.8718419,2.1989527300000002,4.9909117,2.14963239Q5.1099815,2.10031205,5.2313279999999995,2.05689365Q5.3526745,2.01347518,5.476005300000001,1.97606322Q5.5993359,1.93865125,5.724353799999999,1.90733591Q5.8493714,1.87602055,5.9757752,1.85087726Q6.1021791,1.825733975,6.2296648,1.806823317Q6.3571501,1.787912659,6.4854102,1.775280183Q6.6136699,1.762647709,6.7423949,1.7563238544Q6.87112,1.75,7,1.75Q7.1288805,1.75,7.2576056,1.7563238544Q7.3863306,1.762647709,7.5145903,1.775280183Q7.6428499,1.787912659,7.7703352,1.806823317Q7.89782,1.825733975,8.0242238,1.85087726Q8.1506276,1.87602055,8.2756453,1.90733591Q8.4006634,1.93865125,8.5239944,1.97606322Q8.6473255,2.01347518,8.7686715,2.05689362Q8.890018000000001,2.10031205,9.0090876,2.14963239Q9.1281576,2.1989527300000002,9.244664199999999,2.25405616Q9.361169799999999,2.30915958,9.4748325,2.36991334Q9.5884943,2.43066704,9.699038,2.4969247Q9.8095818,2.56318241,9.9167423,2.63478446Q10.0239029,2.7063865700000003,10.1274204,2.7831604Q10.230938,2.8599343,10.3305645,2.9416951Q10.4301901,3.0234559,10.5256844,3.1100066Q10.6211777,3.1965572,10.7123098,3.2876893000000003Q10.803442,3.3788214,10.8899918,3.4743152999999998Q10.9765434,3.5698094,11.0583038,3.6694353Q11.1400642,3.7690609,11.2168379,3.8725784Q11.2936115,3.9760959,11.3652143,4.083256Q11.4368172,4.1904161,11.5030746,4.3009605Q11.5693321,4.4115047,11.6300869,4.525167Q11.6908398,4.6388292,11.7459431,4.7553356Q11.801046,4.8718419,11.850367,4.9909117Q11.899687,5.1099815,11.943106,5.2313279999999995Q11.986525,5.3526745,12.023937,5.476005300000001Q12.061349,5.5993359,12.092664,5.724353799999999Q12.12398,5.8493714,12.149122,5.9757752Q12.174266,6.1021791,12.193177,6.2296648Q12.212088,6.3571501,12.22472,6.4854102Q12.237352,6.6136699,12.243676,6.7423949Q12.25,6.87112,12.25,7Z" fill="#3355FF" fill-opacity="1"/></g><g><g><path d="M9.1034825,5.60348287Q9.1737947,5.53317076,9.2118473,5.44130357Q9.249899899999999,5.349436358,9.2499001,5.25Q9.249899899999999,5.200764146,9.240294500000001,5.152474351Q9.2306888,5.10418455,9.2118468,5.05869657Q9.1930051,5.01320857,9.1656513,4.97227046Q9.1382976,4.93133235,9.1034825,4.89651734Q9.068667399999999,4.86170232,9.0277293,4.83434838Q8.9867911,4.80699441,8.941303,4.78815266Q8.8958149,4.76931089,8.8475254,4.75970545Q8.7992356,4.75010002,8.75,4.75009999Q8.6505635,4.75010002,8.558696,4.78815266Q8.4668288,4.82620534,8.396517,4.89651749L8.3964462,4.89644665L4.89644665,8.3964462L4.89651749,8.396517Q4.82620534,8.4668288,4.78815269,8.5586963Q4.75010002,8.6505635,4.75009999,8.75Q4.75010002,8.7992356,4.75970545,8.8475254Q4.76931089,8.8958149,4.78815264,8.941303Q4.80699438,8.9867911,4.83434835,9.0277293Q4.86170232,9.068667399999999,4.89651734,9.1034827Q4.93133235,9.1382978,4.97227046,9.1656518Q5.01320857,9.1930056,5.05869657,9.2118471Q5.10418455,9.2306888,5.152474351,9.240294200000001Q5.200764146,9.249899899999999,5.25,9.2499001Q5.349436358,9.249899899999999,5.44130357,9.2118473Q5.53317076,9.1737947,5.60348287,9.1034825L5.60355335,9.1035531L9.1035531,5.60355335L9.1034825,5.60348287Z" fill-rule="evenodd" fill="#FFFFFF" fill-opacity="1" style="mix-blend-mode:passthrough"/></g><g><path d="M4.89651731,5.60348269Q4.82620522,5.53317061,4.78815264,5.44130346Q4.75009999,5.349436291,4.75009999,5.25Q4.75010002,5.200764146,4.75970545,5.152474351Q4.76931089,5.10418455,4.78815264,5.05869657Q4.80699438,5.01320857,4.83434835,4.97227046Q4.86170232,4.93133235,4.89651734,4.89651734Q4.93133235,4.86170232,4.97227046,4.83434838Q5.01320857,4.80699441,5.05869657,4.78815266Q5.10418455,4.76931089,5.152474351,4.75970545Q5.200764146,4.75010002,5.25,4.75009999Q5.349436291,4.75009999,5.44130346,4.78815264Q5.53317061,4.82620522,5.60348269,4.89651731L5.60355335,4.89644665L9.1035531,8.3964462L9.1034825,8.3965168Q9.1737943,8.4668288,9.2118473,8.5586958Q9.249899899999999,8.6505632,9.2499001,8.75Q9.249899899999999,8.7992356,9.240294500000001,8.8475254Q9.2306888,8.8958149,9.2118468,8.941303Q9.1930051,8.9867911,9.1656513,9.0277293Q9.1382976,9.068667399999999,9.1034825,9.1034827Q9.068667399999999,9.1382978,9.0277293,9.1656518Q8.9867911,9.1930056,8.941303,9.2118471Q8.8958149,9.2306888,8.8475254,9.240294200000001Q8.7992356,9.249899899999999,8.75,9.2499001Q8.6505632,9.249899899999999,8.558696,9.2118471Q8.4668288,9.1737943,8.3965168,9.1034825L8.3964462,9.1035531L4.89644665,5.60355335L4.89651731,5.60348269Z" fill-rule="evenodd" fill="#FFFFFF" fill-opacity="1" style="mix-blend-mode:passthrough"/></g></g></g></svg>